<svg height="48" width="48" xmlns="http://www.w3.org/2000/svg" xmlns:xlink="http://www.w3.org/1999/xlink"><linearGradient id="a" gradientTransform="matrix(-.99376 -.00282 .00423 .65925 47.823 4.893)" gradientUnits="userSpaceOnUse" x1="29.06" x2="29.01" y1="13.634" y2="1.499"><stop offset="0" stop-color="#63984b"/><stop offset="1" stop-color="#8fc278"/></linearGradient><linearGradient id="b" gradientTransform="translate(12 12)" gradientUnits="userSpaceOnUse" x2="0" y1="32" y2="2"><stop offset="0" stop-color="#d8dcde"/><stop offset="1" stop-color="#f9fafb"/></linearGradient><linearGradient id="c" gradientTransform="translate(1)" gradientUnits="userSpaceOnUse" x2="0" y1="8" y2="4"><stop offset="0" stop-color="#2f3943"/><stop offset="1" stop-color="#4d5662"/></linearGradient><linearGradient id="d" gradientTransform="translate(26)" gradientUnits="userSpaceOnUse" x2="0" xlink:href="#c" y1="8" y2="4"/><linearGradient id="e" gradientUnits="userSpaceOnUse" x1="8" x2="19" y1="8" y2="19"><stop offset="0"/><stop offset="1" stop-opacity="0"/></linearGradient><linearGradient id="f" gradientUnits="userSpaceOnUse" x1="33" x2="44" xlink:href="#e" y1="8" y2="19"/><g stroke-linejoin="bevel" stroke-width="2"><path d="m4 13v31h40v-31z" fill="url(#b)"/><path d="m4 6h40v8h-40z" fill="url(#a)"/><g stroke-linecap="round"><path d="m4 13h40v1h-40z" fill="#507441"/><g fill="#bdc3c7"><path d="m4 14h11v6h-11z"/><path d="m27 38h17v6h-17z"/></g><path d="m7 7h9v1h-9z" fill="#507441"/><path d="m8 4h7v4h-7z" fill="url(#c)"/><path d="m32 7h9v1h-9z" fill="#507441"/><path d="m33 4h7v4h-7z" fill="url(#d)"/><path d="m18 10h12v2h-12z" fill="#fcfcfc"/></g></g><g fill-rule="evenodd"><path d="m8 8 11 11h7l-11-11z" fill="url(#e)" opacity=".2"/><path d="m33 8 11 11v-7l-4-4z" fill="url(#f)" opacity=".2"/></g><g stroke-linecap="round" stroke-linejoin="bevel" stroke-width="2"><g fill="#da4453"><path d="m16 18h4v1h-4z"/><path d="m34 30h2v1h-2z"/><path d="m5 36h1v1h-1z"/><path d="m7 36h1v1h-1z"/></g><g fill="#27ae60"><path d="m16 36h2v1h-2z"/><path d="m28 24h4v1h-4z"/><path d="m10 24h4v1h-4z"/><path d="m16 24h4v1h-4z"/><path d="m22 24h4v1h-4z"/></g><g fill="#3daefd"><path d="m34 36h3v1h-3z"/><path d="m5 30h3v1h-3z"/><path d="m40 18h3v1h-3z"/></g></g></svg>
